<svg width="1400" height="260" viewBox="0 0 1400 260" fill="none" xmlns="http://www.w3.org/2000/svg">
  <defs>
    <linearGradient id="mapFill" x1="760" y1="30" x2="1320" y2="230" gradientUnits="userSpaceOnUse">
      <stop offset="0" stop-color="#3b82f6" stop-opacity="0.22"/>
      <stop offset="1" stop-color="#38bdf8" stop-opacity="0.14"/>
    </linearGradient>
    <linearGradient id="gridStroke" x1="760" y1="40" x2="1320" y2="220" gradientUnits="userSpaceOnUse">
      <stop offset="0" stop-color="#60a5fa" stop-opacity="0.16"/>
      <stop offset="1" stop-color="#38bdf8" stop-opacity="0.12"/>
    </linearGradient>
  </defs>

  <g opacity="0.9">
    <g stroke="url(#gridStroke)" stroke-width="0.8">
      <path d="M760 70h620"/>
      <path d="M760 110h620"/>
      <path d="M760 150h620"/>
      <path d="M760 190h620"/>
      <path d="M840 40v200"/>
      <path d="M940 40v200"/>
      <path d="M1040 40v200"/>
      <path d="M1140 40v200"/>
      <path d="M1240 40v200"/>
      <path d="M1340 40v200"/>
    </g>

    <g fill="url(#mapFill)">
      <!-- North America -->
      <path d="M840 88l40-18 42-4 22 8 10 18-12 20-24 6-20 16-24 10-18-6-12-18 6-20z"/>
      <path d="M936 86l22-10 20 8 8 16-14 18-20 4-12-12 0-24z"/>
      <!-- Central America / Caribbean -->
      <path d="M934 126l18-2 10 10-12 10-20-2-2-8z"/>
      <!-- South America -->
      <path d="M980 138l26 6 16 22-8 24-18 18-26 6-12-18 4-28 18-30z"/>
      <!-- Europe -->
      <path d="M1076 88l28-10 26 6 10 14-12 12-22 6-24-2-10-12 4-14z"/>
      <!-- Africa -->
      <path d="M1088 120l34-6 22 18 6 30-12 30-30 12-28-10-10-28 6-24 12-22z"/>
      <!-- Middle East / West Asia -->
      <path d="M1136 104l28 2 16 14-6 18-22 6-22-6-6-14 12-20z"/>
      <!-- Greenland -->
      <path d="M980 50l22-6 20 4 6 12-16 12-22 2-12-10 2-14z"/>
    </g>

    <g stroke="#38bdf8" stroke-opacity="0.2" stroke-width="1">
      <path d="M1000 70c80 10 140 50 210 120"/>
      <path d="M960 196c90-18 160-70 240-150"/>
    </g>
  </g>
</svg>
